<svg xmlns="http://www.w3.org/2000/svg" viewBox="0 0 162.23 101.86"><defs><style>.cls-1{fill:#f2cc8e;stroke:#1d1d1b;stroke-miterlimit:10;}</style></defs><g id="katman_2" data-name="katman 2"><g id="katman_1-2" data-name="katman 1"><path class="cls-1" d="M133.17,19.34l-.78-10.77c0-.23,10,1.69,11,2a25.16,25.16,0,0,1,16.6,17.16c6.84,22.69-6.3,51.47-32.4,51.51a79.14,79.14,0,0,1-13.75-1L120.6,68s3.15.79,3.36.82C135.22,70.56,146.3,63,150.87,53c5.52-12.15,1.8-30.58-13.33-32.95Z"/><path class="cls-1" d="M137.88.5H.5c.69,106.56,74,100.8,74,100.8,20.86,0,34.88-9.37,44.29-22.4a73.51,73.51,0,0,0,6.06-10c8.21-16.18,11.32-35.21,12.45-49.08.34-4.13.5-7.8.57-10.81C138,3.72,137.88.5,137.88.5ZM91.76,49.76a3.75,3.75,0,0,1-2.66,1.1H74.58V65.48a3.76,3.76,0,0,1-3.75,3.78h-.1A3.77,3.77,0,0,1,67,65.5V50.89H52.43a3.77,3.77,0,0,1-3.77-3.77v0a3.77,3.77,0,0,1,3.77-3.77H67V28.72a3.78,3.78,0,0,1,3.76-3.78h0a3.77,3.77,0,0,1,3.76,3.77V43.32H89.1a3.77,3.77,0,0,1,2.66,6.44Z"/></g></g></svg>