<svg xmlns="http://www.w3.org/2000/svg" viewBox="0 0 1288.09 487.07"><defs><style>.cls-1{fill:#e17a5f;stroke:#1d1d1b;stroke-miterlimit:10;stroke-width:3px;}</style></defs><g id="katman_2" data-name="katman 2"><g id="katman_1-2" data-name="katman 1"><path class="cls-1" d="M1265.77,274.74C1260.9,271,1254,272,1248,273.25c-29.75,6.06-60.28,12.44-85.73,29-37.94,24.66-61.06,49.3-93.87,78.79q-18.75,16.86-34.68,16.86-51.57,0-57.2-88.14h13.13q26.25,0,58.14-5.63a165.67,165.67,0,0,0,59.08-22.5q27.18-16.87,46-47.36t18.75-81.11v-5.63q-.94-37.49-13.13-64.7t-30.94-45a120,120,0,0,0-42.2-26.26,135.31,135.31,0,0,0-46-8.44q-49.71,0-79.71,16T913.22,62.19Q896.8,89.4,891.65,127.36a603.41,603.41,0,0,0-5.16,81.12q0,11.49.25,23-39.56-.15-79.08-1.52c-17.85-.62-35.63-1.55-53.37-2.69-.29-24.4,0-48.77,1.58-72.93q.82-12.45,2.15-24.84a117.82,117.82,0,0,1,4.68-22.94c2.19-6.86,5.3-12.33,9.38-16.41A19.87,19.87,0,0,1,786.6,84,77.69,77.69,0,0,1,795,85.9c24.05,5.75,42.29,13.28,49.23-15.67,3.06-12.78,7-26.53,4.9-39.79-4-25.53-44-28.94-64.43-28.94q-58,0-86.59,40.11c-35.63,49.9-31.24,116.8-29.09,174.91,0,1.22.08,2.43.13,3.65-24.24-2.38-48.48-5-72.79-7.7-16.63-2.47-33.27-5.46-49.94-8.65.1-16.56.57-33.09,1.66-49.52.55-8.3,1.25-16.58,2.16-24.84A117.1,117.1,0,0,1,555,106.52q3.27-10.29,9.38-16.41A19.87,19.87,0,0,1,578.85,84a77.69,77.69,0,0,1,8.44,1.87c24.05,5.75,42.3,13.28,49.23-15.67,3.06-12.78,7-26.53,4.9-39.79-4-25.53-44-28.94-64.43-28.94q-58,0-86.6,40.11C460.62,83.32,458.8,136.9,460.26,187.3c-20.44-3.51-40.93-6.47-61.48-8.26v-.31q-1.86-91-39.85-133.15T253.44,3.38q-33.76,0-71.74,23.91c-53.88,34-78.77,81.86-145.36,94.21-8.15,1.52-16.48,3.1-23.6,7.33-21.87,13-8.08,67.49,9.58,81.16,4.87,3.76,11.76,2.72,17.78,1.49,29.75-6.06,60.28-12.44,85.73-29,37.94-24.67,61.06-49.31,93.87-78.8q18.75-16.86,34.68-16.86,51.57,0,57.2,88.14H298.45q-26.25,0-58.14,5.63a165.5,165.5,0,0,0-59.08,22.51Q154.05,220,135.28,250.47t-18.75,81.11v5.63q.94,37.49,13.13,64.7t30.94,45a120,120,0,0,0,42.2,26.26,135.29,135.29,0,0,0,45.95,8.43q49.71,0,79.71-15.93t46.41-43.14q16.42-27.21,21.57-65.17a603.37,603.37,0,0,0,5.16-81.11q0-5-.05-10,30.32,4.63,60.57,9.34c-.07,24.5-.46,49-.46,73.52v85.66c0,14-5.48,36.8,10,44.27,15.18,7.31,32.8,6.79,49.64,6.13,19.27-.77,27.57-7.83,28.56-26.41.83-15.49.87-31,.72-46.54-.21-22.62-1.74-45.25-1.74-67.87,0-18.35-.42-36.82-.91-55.35l27.45,4.32c31.32,4.94,62.74,9.41,94.26,13.05-.12,14.25-.25,28.5-.25,42.74v85.66c0,14-5.48,36.8,10,44.27,15.19,7.31,32.81,6.79,49.64,6.13,19.27-.77,27.57-7.83,28.57-26.41.82-15.49.86-31,.71-46.54-.21-22.62-1.74-45.25-1.74-67.87q0-15.15-.32-30.39,28.86,1.62,57.78,1.86,37.8.25,75.45-2.48,3.21,85.31,39.64,125.76,38,42.21,105.49,42.2,33.76,0,71.74-23.91c53.88-34,78.77-81.86,145.36-94.21,8.15-1.51,16.48-3.1,23.6-7.33C1297.22,342.9,1283.43,288.41,1265.77,274.74ZM313.45,288.45q0,19.68-1.87,39.38A117.92,117.92,0,0,1,303.13,363a62,62,0,0,1-19.22,25.32q-12.66,9.85-34.23,9.85-14.06,0-29.07-15t-16.87-47.83v-2.81q.94-22.5,10.78-36.57a76.25,76.25,0,0,1,24.38-22.51,100.31,100.31,0,0,1,31.88-11.72A183,183,0,0,1,305,258.44h8.44Zm661.19-92.16q0-19.69,1.87-39.39A118,118,0,0,1,985,121.74a62,62,0,0,1,19.22-25.32q12.66-9.84,34.23-9.85,14.05,0,29.07,15t16.87,47.82v2.81q-.94,22.51-10.78,36.57a76.25,76.25,0,0,1-24.38,22.51A99.83,99.83,0,0,1,1017.31,223a183,183,0,0,1-34.23,3.28h-8.44Z"/></g></g></svg>