<svg xmlns="http://www.w3.org/2000/svg" viewBox="0 0 461.5 481.23"><defs><style>.cls-1{fill:#e17a5f;stroke:#1d1d1b;stroke-miterlimit:10;stroke-width:3px;}</style></defs><g id="katman_2" data-name="katman 2"><g id="katman_1-2" data-name="katman 1"><path class="cls-1" d="M447.43,261.36c6.73-4.93,10.94-13.73,11.76-28.55.75-13.66,3.12-33.59-6.42-45-6.26-7.51-54-9.07-54-10.62v-.31q-1.86-91-39.85-133.15T253.44,1.5q-33.76,0-71.74,23.91c-53.88,34-78.77,81.86-145.36,94.21-8.15,1.51-16.48,3.09-23.6,7.33-21.86,13-8.08,67.49,9.58,81.16,4.87,3.76,11.76,2.72,17.78,1.49,29.75-6.06,60.28-12.44,85.73-29,37.94-24.66,61.06-49.3,93.87-78.79Q238.45,85,254.38,85q51.57,0,57.2,88.15H298.45q-26.25,0-58.14,5.63a165.5,165.5,0,0,0-59.08,22.51q-27.18,16.88-45.95,47.35T116.53,329.7v5.63q.94,37.49,13.13,64.7t30.94,45a119.85,119.85,0,0,0,42.2,26.25,135.07,135.07,0,0,0,45.95,8.44q49.71,0,79.71-15.93t46.41-43.14q16.42-27.21,21.57-65.17a603.37,603.37,0,0,0,5.16-81.11c0-3.33,0-6.64-.05-10C420.66,267.34,437,269,447.43,261.36Zm-134,25.21q0,19.68-1.87,39.38a117.92,117.92,0,0,1-8.45,35.16,62,62,0,0,1-19.22,25.32q-12.66,9.85-34.23,9.85-14.06,0-29.07-15t-16.87-47.83v-2.81q.94-22.51,10.78-36.58a76.33,76.33,0,0,1,24.38-22.5,100.07,100.07,0,0,1,31.88-11.72A183,183,0,0,1,305,256.56h8.44Z"/></g></g></svg>